<svg width="50" height="51" viewBox="0 0 50 51" fill="none" xmlns="http://www.w3.org/2000/svg">
<circle cx="25" cy="25" r="25" fill="#22BDFF"/>
<path d="M33.1 13.5893H37.0166C37.3166 13.5893 37.5833 13.7811 37.7333 14.0688L41.75 22.1237C41.9 22.4114 41.9 22.7758 41.75 23.0635L34.0166 38.9817C33.7 39.6338 32.9 39.6337 32.5667 39.0009L30.4666 34.9542C30.3166 34.6473 30.3166 34.2829 30.4666 33.9953L35.9 23.0635C36.05 22.7758 36.05 22.4114 35.9 22.1046L32.35 15.0085C32.0666 14.3948 32.4666 13.5893 33.1 13.5893Z" fill="white"/>
<path d="M21.4333 13.5893H25.35C25.65 13.5893 25.9167 13.7811 26.0667 14.0688L30.0833 22.1237C30.2333 22.4114 30.2333 22.7758 30.0833 23.0635L22.35 38.9817C22.0333 39.6338 21.2333 39.6337 20.9 39.0009L18.8 34.9542C18.65 34.6473 18.65 34.2829 18.8 33.9953L24.2334 23.0635C24.3834 22.7758 24.3834 22.4114 24.2334 22.1046L20.6833 15.0085C20.4 14.3948 20.8 13.5893 21.4333 13.5893Z" fill="white"/>
<path d="M8 13.5893H13.35C13.65 13.5893 13.9334 13.7811 14.0834 14.0688L18.1167 22.2963C18.2667 22.584 18.2667 22.9484 18.1167 23.2553L16.25 26.9376C15.9334 27.5705 15.1334 27.5705 14.8167 26.9376L8 13.5893Z" fill="white"/>
</svg>
