<svg width="255" height="173" viewBox="0 0 255 173" fill="none" xmlns="http://www.w3.org/2000/svg">
<path d="M19 94.5H181" stroke="#102A43" stroke-width="6" stroke-linecap="round" stroke-linejoin="round" stroke-dasharray="14 14"/>
<mask id="mask0_103_386" style="mask-type:alpha" maskUnits="userSpaceOnUse" x="0" y="0" width="105" height="173">
<rect width="105" height="173" rx="12" fill="#F8FBFB"/>
</mask>
<g mask="url(#mask0_103_386)">
<rect width="105" height="173" rx="12" fill="white"/>
<rect x="18" y="45" width="68.3544" height="45.5696" rx="10" fill="#E7EFF0"/>
<rect x="18" y="137" width="69" height="16" rx="8" fill="#102A43"/>
<rect x="33" y="143" width="40" height="4" rx="2" fill="#D7F8FF"/>
<rect x="29.3924" y="71.2025" width="45.5696" height="4.55696" rx="2.27848" fill="#97AEB0"/>
<rect x="29.3924" y="59.8102" width="28.481" height="4.55696" rx="2.27848" fill="#97AEB0"/>
<rect width="105" height="27" fill="#102A43"/>
</g>
<g filter="url(#filter0_d_103_386)">
<rect x="175" y="59" width="68.3544" height="68.3544" rx="16" fill="#22BDFF"/>
</g>
<g filter="url(#filter1_d_103_386)">
<rect x="175" y="59" width="68.3544" height="68.3544" rx="16" fill="#22BDFF"/>
</g>
<path d="M227.196 106.01C227.196 113.195 216.876 116 209.696 116C202.516 116 191.196 113.195 191.196 106.01C191.196 98.8248 202.516 93 209.696 93C216.876 93 227.196 98.8248 227.196 106.01Z" fill="white"/>
<circle cx="209.696" cy="79" r="8" fill="#573F21"/>
<defs>
<filter id="filter0_d_103_386" x="156" y="54" width="98.3544" height="98.3545" filterUnits="userSpaceOnUse" color-interpolation-filters="sRGB">
<feFlood flood-opacity="0" result="BackgroundImageFix"/>
<feColorMatrix in="SourceAlpha" type="matrix" values="0 0 0 0 0 0 0 0 0 0 0 0 0 0 0 0 0 0 127 0" result="hardAlpha"/>
<feOffset dx="-4" dy="10"/>
<feGaussianBlur stdDeviation="7.5"/>
<feColorMatrix type="matrix" values="0 0 0 0 0.133333 0 0 0 0 0.741176 0 0 0 0 1 0 0 0 0.2 0"/>
<feBlend mode="normal" in2="BackgroundImageFix" result="effect1_dropShadow_103_386"/>
<feBlend mode="normal" in="SourceGraphic" in2="effect1_dropShadow_103_386" result="shape"/>
</filter>
<filter id="filter1_d_103_386" x="156" y="54" width="98.3544" height="98.3545" filterUnits="userSpaceOnUse" color-interpolation-filters="sRGB">
<feFlood flood-opacity="0" result="BackgroundImageFix"/>
<feColorMatrix in="SourceAlpha" type="matrix" values="0 0 0 0 0 0 0 0 0 0 0 0 0 0 0 0 0 0 127 0" result="hardAlpha"/>
<feOffset dx="-4" dy="10"/>
<feGaussianBlur stdDeviation="7.5"/>
<feColorMatrix type="matrix" values="0 0 0 0 0.992157 0 0 0 0 0.760784 0 0 0 0 0.478431 0 0 0 0.21 0"/>
<feBlend mode="normal" in2="BackgroundImageFix" result="effect1_dropShadow_103_386"/>
<feBlend mode="normal" in="SourceGraphic" in2="effect1_dropShadow_103_386" result="shape"/>
</filter>
</defs>
</svg>
