<svg width="47" height="57" viewBox="0 0 47 57" fill="none" xmlns="http://www.w3.org/2000/svg">
<path fill-rule="evenodd" clip-rule="evenodd" d="M5.42471 0.133301H32.1674L46.5111 14.477V51.4913C46.5111 54.3278 44.2118 56.6271 41.3753 56.6271H5.42471C2.58829 56.6271 0.28891 54.3278 0.28891 51.4913V5.2691C0.28891 2.43268 2.58829 0.133301 5.42471 0.133301ZM25.968 5.26943H5.42472V51.4917H41.3753V20.6763H31.1038C28.2673 20.6763 25.968 18.377 25.968 15.5405V5.26943ZM31.1038 6.33311V15.5405H40.3112L31.1038 6.33311ZM13.1284 41.2197V36.0839H28.5358V41.2197H13.1284ZM13.1284 25.8123V30.9481H33.6716V25.8123H13.1284Z" fill="#102A43"/>
</svg>
