<svg width="50" height="41" viewBox="0 0 50 41" fill="none" xmlns="http://www.w3.org/2000/svg">
<path fill-rule="evenodd" clip-rule="evenodd" d="M40.9091 4.54545C43.4195 4.54545 45.4545 6.58052 45.4545 9.09091V11.3637C47.9649 11.3637 50 13.3987 50 15.9091L49.9459 16.4022L45.4454 36.6543C45.2956 39.0293 43.3219 40.9091 40.9091 40.9091H4.54545C2.03507 40.9091 0 38.8741 0 36.3637V36.3636V4.54545C0 2.03507 2.03507 0 4.54545 0H18.1818C20.7273 0 22.3476 1.08057 23.9749 3.13376C24.02 3.19058 24.1298 3.33204 24.2513 3.48868L24.2517 3.48913C24.4231 3.71004 24.6178 3.961 24.6875 4.04732C24.7579 4.13465 24.8173 4.20688 24.8664 4.26658L24.8664 4.26661C25.0663 4.50973 25.0953 4.54496 25.0041 4.54545H40.9091ZM40.9091 9.09091V11.3637H9.09091C6.43954 11.3637 5.25045 12.7761 4.61165 15.3646L4.54545 15.6624V4.54545H18.1818C19.0551 4.54545 19.5614 4.88311 20.4127 5.95718C20.4395 5.99094 20.5162 6.08981 20.6118 6.21301L20.6118 6.21305C20.7945 6.44853 21.0461 6.77286 21.1496 6.90123C22.2925 8.31798 23.3557 9.08214 24.9878 9.09088L40.9091 9.09091ZM40.9091 36.3638H4.60091L9.0368 16.4023C9.09074 16.1849 9.13792 16.0219 9.17343 15.9093H45.3991L40.9632 35.8708L40.9091 36.3638Z" fill="#102A43"/>
</svg>
