<svg width="50" height="45" viewBox="0 0 50 45" fill="none" xmlns="http://www.w3.org/2000/svg">
<path fill-rule="evenodd" clip-rule="evenodd" d="M5 37.5V5H35V37.5C35 38.3766 35.1504 39.2181 35.4268 40H7.5C6.11929 40 5 38.8807 5 37.5ZM42.5 45H7.5C3.35786 45 0 41.6421 0 37.5V0H35H37.5H40V12.5H50V15V17.5V37.5C50 41.6421 46.6421 45 42.5 45ZM40 17.5H45V37.5C45 38.8807 43.8807 40 42.5 40C41.1193 40 40 38.8807 40 37.5V17.5ZM20 10V20H10V10H20ZM30 17.5V12.5H22.5V17.5H30ZM30 22.5V27.5H10V22.5H30ZM30 35V30H10V35H30Z" fill="#102A43"/>
</svg>
