<svg width="220" height="47" viewBox="0 0 220 47" fill="none" xmlns="http://www.w3.org/2000/svg">
<path d="M28.1 9.58929H32.0166C32.3166 9.58929 32.5833 9.78108 32.7333 10.0688L36.75 18.1237C36.9 18.4114 36.9 18.7758 36.75 19.0635L29.0166 34.9817C28.7 35.6338 27.9 35.6337 27.5667 35.0009L25.4666 30.9542C25.3166 30.6473 25.3166 30.2829 25.4666 29.9953L30.9 19.0635C31.05 18.7758 31.05 18.4114 30.9 18.1046L27.35 11.0085C27.0666 10.3948 27.4666 9.58929 28.1 9.58929Z" fill="#22BDFF"/>
<path d="M16.4333 9.58929H20.35C20.65 9.58929 20.9167 9.78108 21.0667 10.0688L25.0833 18.1237C25.2333 18.4114 25.2333 18.7758 25.0833 19.0635L17.35 34.9817C17.0333 35.6338 16.2333 35.6337 15.9 35.0009L13.8 30.9542C13.65 30.6473 13.65 30.2829 13.8 29.9953L19.2334 19.0635C19.3834 18.7758 19.3834 18.4114 19.2334 18.1046L15.6833 11.0085C15.4 10.3948 15.8 9.58929 16.4333 9.58929Z" fill="#22BDFF"/>
<path d="M3 9.58929H8.35004C8.65004 9.58929 8.93337 9.78108 9.08337 10.0688L13.1167 18.2963C13.2667 18.584 13.2667 18.9484 13.1167 19.2553L11.25 22.9376C10.9334 23.5705 10.1334 23.5705 9.81671 22.9376L3 9.58929Z" fill="#22BDFF"/>
<path d="M47.49 12H57.03C59.31 12 61.32 12.44 63.06 13.32C64.82 14.18 66.18 15.4 67.14 16.98C68.12 18.56 68.61 20.4 68.61 22.5C68.61 24.6 68.12 26.44 67.14 28.02C66.18 29.6 64.82 30.83 63.06 31.71C61.32 32.57 59.31 33 57.03 33H47.49V12ZM56.79 29.01C58.89 29.01 60.56 28.43 61.8 27.27C63.06 26.09 63.69 24.5 63.69 22.5C63.69 20.5 63.06 18.92 61.8 17.76C60.56 16.58 58.89 15.99 56.79 15.99H52.35V29.01H56.79ZM78.4552 16.62C80.9552 16.62 82.8752 17.22 84.2152 18.42C85.5552 19.6 86.2252 21.39 86.2252 23.79V33H81.8452V30.99C80.9652 32.49 79.3252 33.24 76.9252 33.24C75.6852 33.24 74.6052 33.03 73.6852 32.61C72.7852 32.19 72.0952 31.61 71.6152 30.87C71.1352 30.13 70.8952 29.29 70.8952 28.35C70.8952 26.85 71.4552 25.67 72.5752 24.81C73.7152 23.95 75.4652 23.52 77.8252 23.52H81.5452C81.5452 22.5 81.2352 21.72 80.6152 21.18C79.9952 20.62 79.0652 20.34 77.8252 20.34C76.9652 20.34 76.1152 20.48 75.2752 20.76C74.4552 21.02 73.7552 21.38 73.1752 21.84L71.4952 18.57C72.3752 17.95 73.4252 17.47 74.6452 17.13C75.8852 16.79 77.1552 16.62 78.4552 16.62ZM78.0952 30.09C78.8952 30.09 79.6052 29.91 80.2252 29.55C80.8452 29.17 81.2852 28.62 81.5452 27.9V26.25H78.3352C76.4152 26.25 75.4552 26.88 75.4552 28.14C75.4552 28.74 75.6852 29.22 76.1452 29.58C76.6252 29.92 77.2752 30.09 78.0952 30.09ZM100.871 32.22C100.411 32.56 99.8408 32.82 99.1608 33C98.5008 33.16 97.8008 33.24 97.0608 33.24C95.1408 33.24 93.6508 32.75 92.5908 31.77C91.5508 30.79 91.0308 29.35 91.0308 27.45V20.82H88.5408V17.22H91.0308V13.29H95.7108V17.22H99.7308V20.82H95.7108V27.39C95.7108 28.07 95.8808 28.6 96.2208 28.98C96.5808 29.34 97.0808 29.52 97.7208 29.52C98.4608 29.52 99.0908 29.32 99.6108 28.92L100.871 32.22ZM110.008 16.62C112.508 16.62 114.428 17.22 115.768 18.42C117.108 19.6 117.778 21.39 117.778 23.79V33H113.398V30.99C112.518 32.49 110.878 33.24 108.478 33.24C107.238 33.24 106.158 33.03 105.238 32.61C104.338 32.19 103.648 31.61 103.168 30.87C102.688 30.13 102.448 29.29 102.448 28.35C102.448 26.85 103.008 25.67 104.128 24.81C105.268 23.95 107.018 23.52 109.378 23.52H113.098C113.098 22.5 112.788 21.72 112.168 21.18C111.548 20.62 110.618 20.34 109.378 20.34C108.518 20.34 107.668 20.48 106.828 20.76C106.008 21.02 105.308 21.38 104.728 21.84L103.048 18.57C103.928 17.95 104.978 17.47 106.198 17.13C107.438 16.79 108.708 16.62 110.008 16.62ZM109.648 30.09C110.448 30.09 111.158 29.91 111.778 29.55C112.398 29.17 112.838 28.62 113.098 27.9V26.25H109.888C107.968 26.25 107.008 26.88 107.008 28.14C107.008 28.74 107.238 29.22 107.698 29.58C108.178 29.92 108.828 30.09 109.648 30.09ZM122.344 12H127.204V29.04H137.734V33H122.344V12ZM155.812 24.99C155.812 25.05 155.782 25.47 155.722 26.25H143.512C143.732 27.25 144.252 28.04 145.072 28.62C145.892 29.2 146.912 29.49 148.132 29.49C148.972 29.49 149.712 29.37 150.352 29.13C151.012 28.87 151.622 28.47 152.182 27.93L154.672 30.63C153.152 32.37 150.932 33.24 148.012 33.24C146.192 33.24 144.582 32.89 143.182 32.19C141.782 31.47 140.702 30.48 139.942 29.22C139.182 27.96 138.802 26.53 138.802 24.93C138.802 23.35 139.172 21.93 139.912 20.67C140.672 19.39 141.702 18.4 143.002 17.7C144.322 16.98 145.792 16.62 147.412 16.62C148.992 16.62 150.422 16.96 151.702 17.64C152.982 18.32 153.982 19.3 154.702 20.58C155.442 21.84 155.812 23.31 155.812 24.99ZM147.442 20.16C146.382 20.16 145.492 20.46 144.772 21.06C144.052 21.66 143.612 22.48 143.452 23.52H151.402C151.242 22.5 150.802 21.69 150.082 21.09C149.362 20.47 148.482 20.16 147.442 20.16ZM164.998 16.62C167.498 16.62 169.418 17.22 170.758 18.42C172.098 19.6 172.768 21.39 172.768 23.79V33H168.388V30.99C167.508 32.49 165.868 33.24 163.468 33.24C162.228 33.24 161.148 33.03 160.228 32.61C159.328 32.19 158.638 31.61 158.158 30.87C157.678 30.13 157.438 29.29 157.438 28.35C157.438 26.85 157.998 25.67 159.118 24.81C160.258 23.95 162.008 23.52 164.368 23.52H168.088C168.088 22.5 167.778 21.72 167.158 21.18C166.538 20.62 165.608 20.34 164.368 20.34C163.508 20.34 162.658 20.48 161.818 20.76C160.998 21.02 160.298 21.38 159.718 21.84L158.038 18.57C158.918 17.95 159.968 17.47 161.188 17.13C162.428 16.79 163.698 16.62 164.998 16.62ZM164.638 30.09C165.438 30.09 166.148 29.91 166.768 29.55C167.388 29.17 167.828 28.62 168.088 27.9V26.25H164.878C162.958 26.25 161.998 26.88 161.998 28.14C161.998 28.74 162.228 29.22 162.688 29.58C163.168 29.92 163.818 30.09 164.638 30.09ZM181.474 18.99C182.034 18.21 182.784 17.62 183.724 17.22C184.684 16.82 185.784 16.62 187.024 16.62V20.94C186.504 20.9 186.154 20.88 185.974 20.88C184.634 20.88 183.584 21.26 182.824 22.02C182.064 22.76 181.684 23.88 181.684 25.38V33H177.004V16.86H181.474V18.99ZM199.616 16.62C201.616 16.62 203.226 17.22 204.446 18.42C205.686 19.62 206.306 21.4 206.306 23.76V33H201.626V24.48C201.626 23.2 201.346 22.25 200.786 21.63C200.226 20.99 199.416 20.67 198.356 20.67C197.176 20.67 196.236 21.04 195.536 21.78C194.836 22.5 194.486 23.58 194.486 25.02V33H189.806V16.86H194.276V18.75C194.896 18.07 195.666 17.55 196.586 17.19C197.506 16.81 198.516 16.62 199.616 16.62ZM212.319 33.24C211.499 33.24 210.809 32.96 210.249 32.4C209.689 31.84 209.409 31.14 209.409 30.3C209.409 29.44 209.689 28.75 210.249 28.23C210.809 27.69 211.499 27.42 212.319 27.42C213.139 27.42 213.829 27.69 214.389 28.23C214.949 28.75 215.229 29.44 215.229 30.3C215.229 31.14 214.949 31.84 214.389 32.4C213.829 32.96 213.139 33.24 212.319 33.24Z" fill="#102A43"/>
</svg>
